<?xml version="1.0" encoding="UTF-8"?>
<svg id="Layer_1" data-name="Layer 1" xmlns="http://www.w3.org/2000/svg" viewBox="0 0 54.42 56.43">
  <defs>
    <style>
      .cls-1 {
        fill: #fff;
      }
    </style>
  </defs>
  <path class="cls-1" d="M21.22.55c-.66.1-1.32.21-1.97.36l-1.35.44,4.59-.4c.51-.02,1.02.01,1.53,0,.22,0,.44,0,.67,0,.75,0,1.51,0,2.26,0,.05,0,.04,0,.13,0s.18,0,.27,0c4.69.78,8.21,1.39,12.37,3.86.99.58,2.03,1.28,2.93,2,.36.28.72.62,1.06.93.56.5,1.22,1.05,1.73,1.6.85.92,1.52,2.12,2.4,3.06,1.29,2.37,2.42,4.6,3.06,7.25.02.09.13.06.13.07.3,1.3.46,3.05.53,4.39,0,.13,0,.27,0,.4,0,.09,0,.18,0,.27,0,.18,0,.36,0,.53,0,.13,0,.27,0,.4,0,.04,0,.09,0,.13-.08,2.08-.36,4.29-1.06,6.25-.54,1.51-1.75,3.72-2.66,5.06-.3.44-.88,1.21-1.2,1.6-.04.05-.09.08-.13.13-.38.46-.99.75-1.2,1.46-.05,0-.71.42-.79.48-.14.1-.12.31-.14.32-.24.19-.44.18-.8.53-.04.04-.09.09-.13.13-.35.08-.7.38-.93.67-.03.02-.1-.02-.13,0-.05.03-.1.09-.13.13s-.12.09-.13.13l-1.86,1.2s-.1-.02-.13,0c-.1.04-.12.13-.13.13-.11.04-.17.09-.27.13-.22.11-.63,0-.53.4-.16.05-.3.06-.53.13-.59.2-1.09.49-1.6.67-1.87.66-3.79,1.2-5.72,1.67-5.33,1.3-10.96,1.75-15.97,4.06-.04.01-.09-.01-.13,0-1.2.43-2.66,1.27-3.73,2-.53.36-1.22.92-1.73,1.33-.78.63-1.49,1.2-2.13,1.99l2.26-1.46c2.15-1.2,4.36-2.35,6.77-2.95.07-.12-.01-.28.02-.38.58.46,1.39-.14,2-.27,1-.2,2.05-.36,3.06-.53.88-.15,1.78-.26,2.66-.4,2.3-.35,4.63-.53,6.92-.93,5.27-.93,9.44-2.53,13.71-5.72.51-.38.83-.63,1.33-1.06.69-.6,1.53-1.18,2.13-1.92.16-.2.31-.3.26-.6,1.07-.64,2.31-2.85,2.93-3.99.35-.65.64-1.32.93-2,.96-2.24,1.59-4.47,1.73-6.92.06-1.01.11-2.62,0-3.59-.03-.25-.12-.32-.13-.4.01-.09-.02-.19,0-.27.06-.26,0-.15,0-.27-.04-.68-.05-1.38-.4-2,0-.04,0-.09,0-.13-.04-.6-.22-2.14-.67-2.53-.29-1.1-.58-2.02-1.06-3.06-.16-.34-.35-.62-.53-.93-.23-.39.11-.28-.4-.53-.04-.02-.11.02-.13,0v-.13s0-.09,0-.13c0-.02.15-.24-.02-.39-.07-.05-.19,0-.25-.01.01-.63-.44-.73-.67-1.06-.15-.21-.29-.38-.4-.53-.42-.61-.69-1.12-1.2-1.73-.2-.24-.37-.35-.53-.53-.19-.21-.34-.34-.53-.53-.09-.09-.18-.18-.27-.27-.15-.15.01-.29-.53-.53-.39-.34-.67-.79-1.06-1.14-.27-.24-.91-.62-1.2-.86-.07-.06-.14-.17-.27-.27-.32-.25-.6-.44-.93-.67-.45-.3-.48-.41-1.06-.67,0,0-.04-.09-.13-.13-.04-.02-.1.02-.13,0-.39-.45-1.06-.69-1.6-.93-.04-.02-.1.02-.13,0-.08-.03-.15-.09-.27-.13-.09-.03-.11-.16-.53-.27-.09-.24-.3-.28-.5-.37C36.18,1.13,31.96.11,29.08.15c-.18,0-.36,0-.53,0-.5,0-1.2-.15-1.66-.15-1.81.02-3.86.26-5.66.54ZM29.51,4.8c-5.16-1.31-10.79-1.3-15.97-.09-1.44.34-2.82.83-4.22,1.29-.03.24.29.12.43.1,1.14-.18,2.27-.51,3.42-.63,1.45-.03,2.88-.23,4.38-.27,1.58-.03,3.2.08,4.78,0l6.38,1.06c5.04,1.89,10.08,5.15,12.75,9.96,1.22,2.2,1.99,5.2,2.13,7.7.04.65,0,1.34,0,1.99,0,.13,0,.27,0,.4,0,.09,0,.18,0,.27-.24.87-.29,1.93-.53,2.79-.2.72-.99,2.03-1.06,2.66,0,.04,0,.09,0,.13-.36.24-.54.78-.66,1.2-.09.09-.17.17-.27.27-.02.02.02.11,0,.13-.04.05-.09.09-.13.13s-.09.09-.13.13c-.1.12-.16.29-.27.4-.17.19-.24.37-.27.4-.29.32-.63.62-.93.93-.17.17-.36.37-.53.53-.14.13-.27.27-.4.4-.05.04-.09.09-.13.13-.15.13-.52.27-.66.53-.64.4-1.22.93-1.86,1.33-.87.55-1.83.97-2.66,1.59-.14.04-.26.09-.4.13-1.01.33-1.97.85-2.99,1.2-5.25,1.82-10.53,2.32-15.74,4.45-.33.14-.85.31-1.06.6-.56.22-.74.44-1.2.66-.91.44-1.65.74-2.52,1.33-.93.62-1.82,1.38-2.66,2.13-.59.53-1.28,1.13-1.8,1.72-.14.15-.15.36-.25.48-.18.22-.75.49-.54.72.76-.65,1.52-1.4,2.33-1.99,2.94-2.15,6.72-4.05,10.23-5.05,2.14-.61,4.19-.93,6.24-1.33.08-.02.18.02.27,0,.21-.04.25-.13.27-.13,2.07-.4,10.03-1.74,11.29-3.06,1.59-.62,3.07-1.52,4.43-2.55.98-.74,1.67-1.5,2.48-2.37,1.48-1.6,2.54-2.87,3.45-4.92.25-.56.35-1.04.53-1.59.46-1.4.77-2.66.8-4.12.22-.74.16-1.74.13-2.52,0-.13,0-.27,0-.4-.08-1.58-.37-3.38-1.06-4.78-.01-.04.01-.09,0-.13s.01-.09,0-.13c-.27-1.02-.84-2.01-1.33-2.92-1.01-1.89-1.93-3.02-3.45-4.52-.09-.09-.17-.18-.27-.27-.13-.12-.22-.25-.4-.4-.05-.04-.09-.09-.13-.13-.4-.33-.59-.57-1.06-.8-.23-.37-.19-.19-.27-.27-.04-.05-.09-.09-.13-.13-.51-.46-.65-.49-1.2-.8-1.07-.84-3.44-2.43-4.78-2.66-.04,0-.09,0-.13,0-.76-.46-1.79-.71-2.66-.93ZM16.36,9.95c-.13-.2-.47-.11-.68-.11-2.96.04-5.91.43-8.77,1.18-1.21.32-2.37.78-3.57,1.12l.07.24c.78-.19,1.6-.42,2.39-.55.08-.01.17,0,.25,0,.16-.03.33,0,.49-.01.06,0,.11-.07.12-.13.12-.02.25,0,.37,0l2.21-.31c2.5.02,5.02-.17,7.52-.08.4.05.84.16,1.24.21,2.18.31,4.35.56,6.45,1.31.14.05.28.08.37.11.07.03.16.08.25.12.99.4,2.35,1.17,3.25,1.76,2.31,1.52,4.5,3.96,5.35,6.64.23.71.38,1.82.44,2.58,0,.08,0,.16,0,.25.04.94.02,2.16-.17,3.09-.02.09-.19.31-.23.5-.07.29-.16.58-.22.87,0,.04.01.08,0,.12-.5.93-.91,1.77-1.53,2.63-.05.07-.07.19-.12.25-.05.06-.16.16-.24.25-.09.1-.25.26-.36.38-.04.04-.08.08-.12.13-.15.16-.32.34-.48.51-.05.06-.28.17-.48.38-.08.09-.16.16-.24.25-.53.39-1.37.84-1.82,1.28-.04.04-.08.08-.12.13-.04.01-.09-.01-.12,0-.25.12-.4.34-.48.38-3.02,1.61-5.98,2.4-9.15,3.57-1.98.56-3.66,1.27-5.49,2.12-.19.09-.37.14-.61.26-.17.08-.32.17-.49.26s-.32.17-.49.26c-.25.13-.57.23-.85.39-.96.56-2.19,1.32-2.9,2.17-.94.39-1.42,1.35-2.17,1.97l.07.18c.33-.36.75-.62,1.15-.89,3.32-2.28,6.72-3.91,10.59-5.03,4.34-1.26,7.79-1.68,11.86-3.95,1.83-1.02,2.77-1.67,4.23-3.19.41-.43.5-.61.84-1.01.04-.05.1-.07.24-.25,1.17-1.51,1.76-2.39,2.23-4.37.18-.77.42-1.54.31-2.35.21-.17.11-.6.1-.87,0-.12,0-.25,0-.37-.02-.25-.13-.46-.14-.49-.03-.26.02-.54-.02-.8-.06-.39-.14-.8-.28-1.17l-.14-.49c-.02-.06-.12-.1-.13-.12-.01-.04,0-.09,0-.12-.04-.14-.09-.24-.13-.37-.01-.04.01-.09,0-.12-.46-1.23-.75-1.72-1.43-2.8-.1-.16-.17-.24-.26-.36-.18-.26-.19-.5-.52-.85-.28-.29-.24-.2-.5-.36-.03-.02-.1.02-.12,0-.02-.02.01-.09,0-.12-.02-.03.01-.09,0-.12-.31-.57-.69-.65-1.01-.96-.11-.11-.18-.64-.63-.6-.14-.2-.19-.23-.38-.36-.04-.04-.08-.09-.13-.12-.11-.08-.26-.18-.38-.24-.07-.19-.23-.26-.38-.36-.74-.51-2.44-1.57-3.25-1.76-.04,0-.08.01-.12,0-.33-.26-.85-.46-1.25-.58-1.64-.53-3.86-1-5.58-1.09-.08,0-.16,0-.25,0-.22,0-.32.01-.49.01-.04,0-.08,0-.12,0-.77-.25-1.81-.34-2.59-.05-.08,0-.17,0-.25,0ZM2.26,16.06c-.06.02-.16-.01-.23,0l-2.03.56c.94.02,1.89-.03,2.82-.11.32-.03.63-.08.9-.11h2.03c.56,0,1.13,0,1.69,0,.08,0,.15,0,.23,0,.83,0,1.66.01,2.48,0,.04,0,.07,0,.11,0,.07,0,.15,0,.23,0,.84.2,1.79.14,2.65.23,3.88.41,9.45,1.95,11.69,5.42.41.64.77,1.62.9,2.37.15.83.14,1.54,0,2.37-.19,1.11-.72,1.97-1.24,2.94-.4.16-.13.1-.23.23-.46.59-2.25,1.86-2.94,2.26-2.43,1.41-5.25,1.99-7.79,3.16h-.11c-.29.01-.55.25-.79.34-.1.03-.16.08-.23.11-.29.12-.77.12-1.02.45-.03.01-.08-.01-.11,0-.26.08-.29.15-.45.23-.19.09-.47.06-.56.34-.03.01-.08-.01-.11,0-.08.03-.11.11-.11.11-.08.04-.15.08-.23.11-.23.11-.23.15-.34.23-.03.02-.09-.02-.11,0-.14.09-.19.2-.23.23-.16.11-.3.23-.45.34-.86.17-1.48,1-2.2,1.47-.16.21.21.09.29.06.42-.16.7-.46,1.01-.62.97-.49,2.04-1,3.05-1.41,5.63-2.31,14-2.67,16.83-8.98.45-1.02.67-1.8.68-2.94.01-2.03-.65-3.46-1.92-4.97-1.03-1.22-2.55-2.59-4.07-3.16-.41-.32-.97-.53-1.47-.68-.03-.01-.08,0-.11,0-2.7-1.21-5.77-1.41-8.7-1.47-.08,0-.15,0-.23,0-.41,0-.83,0-1.24,0-.15,0-.3,0-.45,0-2.16.06-5.91.24-7.91.9Z"/>
</svg>